<svg width="334" height="118" viewBox="0 0 334 118" fill="none" xmlns="http://www.w3.org/2000/svg">
<rect width="334" height="118" rx="30" fill="#42C83C"/>
<path d="M23.6939 21.7273V29H22.522L19.0952 24.0462H19.0348V29H17.7173V21.7273H18.8963L22.3196 26.6847H22.3835V21.7273H23.6939ZM27.4874 29.1065C26.9405 29.1065 26.4682 28.9929 26.0705 28.7656C25.6751 28.536 25.3709 28.2116 25.1578 27.7926C24.9448 27.3712 24.8382 26.8752 24.8382 26.3047C24.8382 25.7436 24.9448 25.2512 25.1578 24.8274C25.3733 24.4013 25.6739 24.0698 26.0598 23.8331C26.4457 23.594 26.8991 23.4744 27.4199 23.4744C27.7561 23.4744 28.0733 23.5289 28.3716 23.6378C28.6723 23.7443 28.9374 23.91 29.1671 24.1349C29.3991 24.3598 29.5814 24.6463 29.714 24.9943C29.8465 25.34 29.9128 25.7519 29.9128 26.2301V26.6243H25.4419V25.7578H28.6806C28.6782 25.5116 28.6249 25.2926 28.5208 25.1009C28.4166 24.9067 28.271 24.754 28.084 24.6428C27.8993 24.5315 27.6839 24.4759 27.4377 24.4759C27.1749 24.4759 26.9441 24.5398 26.7452 24.6676C26.5463 24.7931 26.3913 24.9588 26.28 25.1648C26.1711 25.3684 26.1155 25.5921 26.1131 25.8359V26.5923C26.1131 26.9096 26.1711 27.1818 26.2871 27.4091C26.4031 27.634 26.5653 27.8068 26.7736 27.9276C26.9819 28.0459 27.2258 28.1051 27.5051 28.1051C27.6922 28.1051 27.8614 28.0791 28.013 28.027C28.1645 27.9725 28.2959 27.8932 28.4071 27.7891C28.5184 27.6849 28.6025 27.5559 28.6593 27.402L29.8596 27.5369C29.7838 27.8542 29.6394 28.1312 29.4263 28.3679C29.2156 28.6023 28.9457 28.7846 28.6167 28.9148C28.2876 29.0426 27.9112 29.1065 27.4874 29.1065ZM32.0968 29L30.5556 23.5455H31.8659L32.8248 27.3807H32.8745L33.8546 23.5455H35.1507L36.1309 27.3594H36.1841L37.1287 23.5455H38.4426L36.8979 29H35.5591L34.5364 25.3139H34.4618L33.4391 29H32.0968ZM42.8114 29H41.4052L43.9656 21.7273H45.592L48.1559 29H46.7496L44.8072 23.2188H44.7504L42.8114 29ZM42.8576 26.1484H46.6928V27.2067H42.8576V26.1484ZM50.3425 21.7273V29H49.057V21.7273H50.3425ZM51.7212 29V21.7273H53.0067V24.4474H53.06C53.1263 24.3149 53.2198 24.174 53.3406 24.0249C53.4613 23.8733 53.6246 23.7443 53.8306 23.6378C54.0366 23.5289 54.2994 23.4744 54.619 23.4744C55.0404 23.4744 55.4203 23.5821 55.7589 23.7976C56.0998 24.0107 56.3697 24.3267 56.5685 24.7457C56.7698 25.1624 56.8704 25.6738 56.8704 26.2798C56.8704 26.8788 56.7721 27.3878 56.5756 27.8068C56.3791 28.2259 56.1116 28.5455 55.7731 28.7656C55.4345 28.9858 55.051 29.0959 54.6225 29.0959C54.31 29.0959 54.0508 29.0438 53.8448 28.9396C53.6388 28.8355 53.4731 28.71 53.3477 28.5632C53.2246 28.4141 53.1287 28.2732 53.06 28.1406H52.9854V29H51.7212ZM52.9819 26.2727C52.9819 26.6255 53.0316 26.9344 53.131 27.1996C53.2328 27.4647 53.3784 27.6719 53.5678 27.821C53.7596 27.9678 53.9916 28.0412 54.2638 28.0412C54.5479 28.0412 54.7859 27.9654 54.9776 27.8139C55.1694 27.66 55.3138 27.4505 55.4109 27.1854C55.5103 26.9179 55.56 26.6136 55.56 26.2727C55.56 25.9342 55.5115 25.6335 55.4144 25.3707C55.3174 25.108 55.1729 24.902 54.9812 24.7528C54.7894 24.6037 54.5503 24.5291 54.2638 24.5291C53.9892 24.5291 53.756 24.6013 53.5643 24.7457C53.3725 24.8902 53.2269 25.0926 53.1275 25.353C53.0304 25.6134 52.9819 25.92 52.9819 26.2727ZM61.4398 26.706V23.5455H62.7253V29H61.4789V28.0305H61.4221C61.2989 28.3359 61.0965 28.5857 60.8148 28.7798C60.5355 28.974 60.191 29.071 59.7814 29.071C59.4239 29.071 59.1079 28.9917 58.8333 28.8331C58.561 28.6721 58.348 28.4389 58.1941 28.1335C58.0402 27.8258 57.9632 27.4541 57.9632 27.0185V23.5455H59.2488V26.8196C59.2488 27.1652 59.3435 27.4399 59.5328 27.6435C59.7222 27.8471 59.9708 27.9489 60.2786 27.9489C60.468 27.9489 60.6515 27.9027 60.829 27.8104C61.0066 27.718 61.1522 27.5807 61.2658 27.3984C61.3818 27.2138 61.4398 26.983 61.4398 26.706ZM64.0472 29V23.5455H65.2759V24.4723H65.3398C65.4535 24.1598 65.6417 23.916 65.9045 23.7408C66.1673 23.5632 66.4809 23.4744 66.8455 23.4744C67.2148 23.4744 67.5262 23.5644 67.7795 23.7443C68.0352 23.9219 68.2151 24.1645 68.3192 24.4723H68.3761C68.4968 24.1693 68.7004 23.9278 68.9869 23.7479C69.2757 23.5656 69.6178 23.4744 70.0131 23.4744C70.515 23.4744 70.9246 23.633 71.2418 23.9503C71.5591 24.2675 71.7177 24.7304 71.7177 25.3388V29H70.4286V25.5376C70.4286 25.1991 70.3387 24.9517 70.1587 24.7955C69.9788 24.6368 69.7586 24.5575 69.4982 24.5575C69.1881 24.5575 68.9454 24.6546 68.7702 24.8487C68.5974 25.0405 68.511 25.2902 68.511 25.598V29H67.2504V25.4844C67.2504 25.2027 67.1651 24.9777 66.9947 24.8097C66.8266 24.6416 66.6064 24.5575 66.3342 24.5575C66.1495 24.5575 65.9814 24.6049 65.8299 24.6996C65.6784 24.7919 65.5576 24.9233 65.4677 25.0938C65.3777 25.2618 65.3327 25.4583 65.3327 25.6832V29H64.0472Z" fill="white"/>
<path d="M18.0114 52V40.3636H22.6705C23.5265 40.3636 24.2405 40.4905 24.8125 40.7443C25.3845 40.9981 25.8144 41.3504 26.1023 41.8011C26.3902 42.2481 26.5341 42.7633 26.5341 43.3466C26.5341 43.8011 26.4432 44.2008 26.2614 44.5455C26.0795 44.8864 25.8295 45.1667 25.5114 45.3864C25.197 45.6023 24.8371 45.7557 24.4318 45.8466V45.9602C24.875 45.9792 25.2898 46.1042 25.6761 46.3352C26.0663 46.5663 26.3826 46.8902 26.625 47.3068C26.8674 47.7197 26.9886 48.2121 26.9886 48.7841C26.9886 49.4015 26.8352 49.9527 26.5284 50.4375C26.2254 50.9186 25.7765 51.2992 25.1818 51.5795C24.5871 51.8598 23.8542 52 22.983 52H18.0114ZM20.4716 49.9886H22.4773C23.1629 49.9886 23.6629 49.858 23.9773 49.5966C24.2917 49.3314 24.4489 48.9792 24.4489 48.5398C24.4489 48.2178 24.3712 47.9337 24.2159 47.6875C24.0606 47.4413 23.839 47.2481 23.5511 47.108C23.267 46.9678 22.928 46.8977 22.5341 46.8977H20.4716V49.9886ZM20.4716 45.233H22.2955C22.6326 45.233 22.9318 45.1742 23.1932 45.0568C23.4583 44.9356 23.6667 44.7652 23.8182 44.5455C23.9735 44.3258 24.0511 44.0625 24.0511 43.7557C24.0511 43.3352 23.9015 42.9962 23.6023 42.7386C23.3068 42.4811 22.8864 42.3523 22.3409 42.3523H20.4716V45.233ZM28.544 52V43.2727H30.9645V52H28.544ZM29.7599 42.1477C29.4001 42.1477 29.0914 42.0284 28.8338 41.7898C28.58 41.5473 28.4531 41.2576 28.4531 40.9205C28.4531 40.5871 28.58 40.3011 28.8338 40.0625C29.0914 39.8201 29.4001 39.6989 29.7599 39.6989C30.1198 39.6989 30.4266 39.8201 30.6804 40.0625C30.938 40.3011 31.0668 40.5871 31.0668 40.9205C31.0668 41.2576 30.938 41.5473 30.6804 41.7898C30.4266 42.0284 30.1198 42.1477 29.7599 42.1477ZM36.8352 55.4545C36.0511 55.4545 35.3788 55.3466 34.8182 55.1307C34.2614 54.9186 33.8182 54.6288 33.4886 54.2614C33.1591 53.8939 32.9451 53.4811 32.8466 53.0227L35.0852 52.7216C35.1534 52.8958 35.2614 53.0587 35.4091 53.2102C35.5568 53.3617 35.7519 53.483 35.9943 53.5739C36.2405 53.6686 36.5398 53.7159 36.892 53.7159C37.4186 53.7159 37.8523 53.5871 38.1932 53.3295C38.5379 53.0758 38.7102 52.6496 38.7102 52.0511V50.4545H38.608C38.5019 50.697 38.3428 50.9261 38.1307 51.142C37.9186 51.358 37.6458 51.5341 37.3125 51.6705C36.9792 51.8068 36.5814 51.875 36.1193 51.875C35.464 51.875 34.8674 51.7235 34.3295 51.4205C33.7955 51.1136 33.3693 50.6458 33.0511 50.017C32.7367 49.3845 32.5795 48.5852 32.5795 47.6193C32.5795 46.6307 32.7405 45.8049 33.0625 45.142C33.3845 44.4792 33.8125 43.983 34.3466 43.6534C34.8845 43.3239 35.4735 43.1591 36.1136 43.1591C36.6023 43.1591 37.0114 43.2424 37.3409 43.4091C37.6705 43.572 37.9356 43.7765 38.1364 44.0227C38.3409 44.2652 38.4981 44.5038 38.608 44.7386H38.6989V43.2727H41.1023V52.0852C41.1023 52.8277 40.9205 53.4489 40.5568 53.9489C40.1932 54.4489 39.6894 54.8239 39.0455 55.0739C38.4053 55.3277 37.6686 55.4545 36.8352 55.4545ZM36.8864 50.0568C37.2765 50.0568 37.6061 49.9602 37.875 49.767C38.1477 49.5701 38.3561 49.2898 38.5 48.9261C38.6477 48.5587 38.7216 48.1193 38.7216 47.608C38.7216 47.0966 38.6496 46.6534 38.5057 46.2784C38.3617 45.8996 38.1534 45.6061 37.8807 45.3977C37.608 45.1894 37.2765 45.0852 36.8864 45.0852C36.4886 45.0852 36.1534 45.1932 35.8807 45.4091C35.608 45.6212 35.4015 45.9167 35.2614 46.2955C35.1212 46.6742 35.0511 47.1117 35.0511 47.608C35.0511 48.1117 35.1212 48.5473 35.2614 48.9148C35.4053 49.2784 35.6117 49.5606 35.8807 49.7614C36.1534 49.9583 36.4886 50.0568 36.8864 50.0568ZM22.1364 71H18.0114V59.3636H22.1705C23.3409 59.3636 24.3485 59.5966 25.1932 60.0625C26.0379 60.5246 26.6875 61.1894 27.142 62.0568C27.6004 62.9242 27.8295 63.9621 27.8295 65.1705C27.8295 66.3826 27.6004 67.4242 27.142 68.2955C26.6875 69.1667 26.0341 69.8352 25.1818 70.3011C24.3333 70.767 23.3182 71 22.1364 71ZM20.4716 68.892H22.0341C22.7614 68.892 23.3731 68.7633 23.8693 68.5057C24.3693 68.2443 24.7443 67.8409 24.9943 67.2955C25.2481 66.7462 25.375 66.0379 25.375 65.1705C25.375 64.3106 25.2481 63.608 24.9943 63.0625C24.7443 62.517 24.3712 62.1155 23.875 61.858C23.3788 61.6004 22.767 61.4716 22.0398 61.4716H20.4716V68.892ZM31.3281 71L28.9531 62.2727H31.402L32.7543 68.1364H32.8338L34.2429 62.2727H36.6463L38.0781 68.1023H38.152L39.4815 62.2727H41.9247L39.5554 71H36.9929L35.4929 65.5114H35.3849L33.8849 71H31.3281ZM45.7045 71.1648C45.1477 71.1648 44.6515 71.0682 44.2159 70.875C43.7803 70.678 43.4356 70.3883 43.1818 70.0057C42.9318 69.6193 42.8068 69.1383 42.8068 68.5625C42.8068 68.0777 42.8958 67.6705 43.0739 67.3409C43.2519 67.0114 43.4943 66.7462 43.8011 66.5455C44.108 66.3447 44.4564 66.1932 44.8466 66.0909C45.2405 65.9886 45.6534 65.9167 46.0852 65.875C46.5928 65.822 47.0019 65.7727 47.3125 65.7273C47.6231 65.678 47.8485 65.6061 47.9886 65.5114C48.1288 65.4167 48.1989 65.2765 48.1989 65.0909V65.0568C48.1989 64.697 48.0852 64.4186 47.858 64.2216C47.6345 64.0246 47.3163 63.9261 46.9034 63.9261C46.4678 63.9261 46.1212 64.0227 45.8636 64.2159C45.6061 64.4053 45.4356 64.6439 45.3523 64.9318L43.1136 64.75C43.2273 64.2197 43.4508 63.7614 43.7841 63.375C44.1174 62.9848 44.5473 62.6856 45.0739 62.4773C45.6042 62.2652 46.2178 62.1591 46.9148 62.1591C47.3996 62.1591 47.8636 62.2159 48.3068 62.3295C48.7538 62.4432 49.1496 62.6193 49.4943 62.858C49.8428 63.0966 50.1174 63.4034 50.3182 63.7784C50.5189 64.1496 50.6193 64.5947 50.6193 65.1136V71H48.3239V69.7898H48.2557C48.1155 70.0625 47.928 70.303 47.6932 70.5114C47.4583 70.7159 47.1761 70.8769 46.8466 70.9943C46.517 71.108 46.1364 71.1648 45.7045 71.1648ZM46.3977 69.4943C46.7538 69.4943 47.0682 69.4242 47.3409 69.2841C47.6136 69.1402 47.8277 68.947 47.983 68.7045C48.1383 68.4621 48.2159 68.1875 48.2159 67.8807V66.9545C48.1402 67.0038 48.036 67.0492 47.9034 67.0909C47.7746 67.1288 47.6288 67.1648 47.4659 67.1989C47.303 67.2292 47.1402 67.2576 46.9773 67.2841C46.8144 67.3068 46.6667 67.3277 46.5341 67.3466C46.25 67.3883 46.0019 67.4545 45.7898 67.5455C45.5777 67.6364 45.4129 67.7595 45.2955 67.9148C45.178 68.0663 45.1193 68.2557 45.1193 68.483C45.1193 68.8125 45.2386 69.0644 45.4773 69.2386C45.7197 69.4091 46.0265 69.4943 46.3977 69.4943ZM56.429 74.4545C55.6449 74.4545 54.9725 74.3466 54.4119 74.1307C53.8551 73.9186 53.4119 73.6288 53.0824 73.2614C52.7528 72.8939 52.5388 72.4811 52.4403 72.0227L54.679 71.7216C54.7472 71.8958 54.8551 72.0587 55.0028 72.2102C55.1506 72.3617 55.3456 72.483 55.5881 72.5739C55.8343 72.6686 56.1335 72.7159 56.4858 72.7159C57.0123 72.7159 57.446 72.5871 57.7869 72.3295C58.1316 72.0758 58.304 71.6496 58.304 71.0511V69.4545H58.2017C58.0956 69.697 57.9366 69.9261 57.7244 70.142C57.5123 70.358 57.2396 70.5341 56.9062 70.6705C56.5729 70.8068 56.1752 70.875 55.7131 70.875C55.0578 70.875 54.4612 70.7235 53.9233 70.4205C53.3892 70.1136 52.9631 69.6458 52.6449 69.017C52.3305 68.3845 52.1733 67.5852 52.1733 66.6193C52.1733 65.6307 52.3343 64.8049 52.6562 64.142C52.9782 63.4792 53.4063 62.983 53.9403 62.6534C54.4782 62.3239 55.0672 62.1591 55.7074 62.1591C56.196 62.1591 56.6051 62.2424 56.9347 62.4091C57.2642 62.572 57.5294 62.7765 57.7301 63.0227C57.9347 63.2652 58.0919 63.5038 58.2017 63.7386H58.2926V62.2727H60.696V71.0852C60.696 71.8277 60.5142 72.4489 60.1506 72.9489C59.7869 73.4489 59.2831 73.8239 58.6392 74.0739C57.9991 74.3277 57.2623 74.4545 56.429 74.4545ZM56.4801 69.0568C56.8703 69.0568 57.1998 68.9602 57.4688 68.767C57.7415 68.5701 57.9498 68.2898 58.0938 67.9261C58.2415 67.5587 58.3153 67.1193 58.3153 66.608C58.3153 66.0966 58.2434 65.6534 58.0994 65.2784C57.9555 64.8996 57.7472 64.6061 57.4744 64.3977C57.2017 64.1894 56.8703 64.0852 56.4801 64.0852C56.0824 64.0852 55.7472 64.1932 55.4744 64.4091C55.2017 64.6212 54.9953 64.9167 54.8551 65.2955C54.715 65.6742 54.6449 66.1117 54.6449 66.608C54.6449 67.1117 54.715 67.5473 54.8551 67.9148C54.9991 68.2784 55.2055 68.5606 55.4744 68.7614C55.7472 68.9583 56.0824 69.0568 56.4801 69.0568ZM69.8835 64.7614L67.6676 64.8977C67.6297 64.7083 67.5483 64.5379 67.4233 64.3864C67.2983 64.2311 67.1335 64.108 66.929 64.017C66.7282 63.9223 66.4877 63.875 66.2074 63.875C65.8324 63.875 65.5161 63.9545 65.2585 64.1136C65.0009 64.2689 64.8722 64.4773 64.8722 64.7386C64.8722 64.947 64.9555 65.1231 65.1222 65.267C65.2888 65.411 65.5748 65.5265 65.9801 65.6136L67.5597 65.9318C68.4081 66.1061 69.0407 66.3864 69.4574 66.7727C69.8741 67.1591 70.0824 67.6667 70.0824 68.2955C70.0824 68.8674 69.9138 69.3693 69.5767 69.8011C69.2434 70.233 68.785 70.5701 68.2017 70.8125C67.6222 71.0511 66.9536 71.1705 66.196 71.1705C65.0407 71.1705 64.1203 70.9299 63.4347 70.4489C62.7528 69.964 62.3532 69.3049 62.2358 68.4716L64.6165 68.3466C64.6884 68.6989 64.8627 68.9678 65.1392 69.1534C65.4157 69.3352 65.7699 69.4261 66.2017 69.4261C66.6259 69.4261 66.9669 69.3447 67.2244 69.1818C67.4858 69.0152 67.6184 68.8011 67.6222 68.5398C67.6184 68.3201 67.5256 68.1402 67.3438 68C67.1619 67.8561 66.8816 67.7462 66.5028 67.6705L64.9915 67.3693C64.1392 67.1989 63.5047 66.9034 63.0881 66.483C62.6752 66.0625 62.4688 65.5265 62.4688 64.875C62.4688 64.3144 62.6203 63.8314 62.9233 63.4261C63.2301 63.0208 63.66 62.7083 64.2131 62.4886C64.7699 62.2689 65.4214 62.1591 66.1676 62.1591C67.2699 62.1591 68.1373 62.392 68.7699 62.858C69.4063 63.3239 69.7775 63.9583 69.8835 64.7614Z" fill="white"/>
<path d="M17.8608 100V91.2727H19.4418V94.9673H23.4858V91.2727H25.071V100H23.4858V96.2926H19.4418V100H17.8608ZM28.6058 100.132C28.1911 100.132 27.8175 100.058 27.4851 99.9105C27.1555 99.7599 26.8942 99.5384 26.701 99.2457C26.5107 98.9531 26.4155 98.5923 26.4155 98.1634C26.4155 97.794 26.4837 97.4886 26.62 97.2472C26.7564 97.0057 26.9425 96.8125 27.1783 96.6676C27.4141 96.5227 27.6797 96.4134 27.9751 96.3395C28.2734 96.2628 28.5817 96.2074 28.8999 96.1733C29.2834 96.1335 29.5945 96.098 29.8331 96.0668C30.0717 96.0327 30.245 95.9815 30.353 95.9134C30.4638 95.8423 30.5192 95.733 30.5192 95.5852V95.5597C30.5192 95.2386 30.424 94.9901 30.2337 94.8139C30.0433 94.6378 29.7692 94.5497 29.4112 94.5497C29.0334 94.5497 28.7337 94.6321 28.5121 94.7969C28.2933 94.9616 28.1456 95.1562 28.0689 95.3807L26.6286 95.1761C26.7422 94.7784 26.9297 94.446 27.1911 94.179C27.4524 93.9091 27.772 93.7074 28.1499 93.5739C28.5277 93.4375 28.9453 93.3693 29.4027 93.3693C29.718 93.3693 30.032 93.4062 30.3445 93.4801C30.657 93.554 30.9425 93.6761 31.201 93.8466C31.4595 94.0142 31.6669 94.2429 31.8232 94.5327C31.9822 94.8224 32.0618 95.1847 32.0618 95.6193V100H30.5788V99.1009H30.5277C30.4339 99.2827 30.3018 99.4531 30.1314 99.6122C29.9638 99.7685 29.7521 99.8949 29.4964 99.9915C29.2436 100.085 28.9467 100.132 28.6058 100.132ZM29.0064 98.9986C29.3161 98.9986 29.5845 98.9375 29.8118 98.8153C30.0391 98.6903 30.2138 98.5256 30.3359 98.321C30.4609 98.1165 30.5234 97.8935 30.5234 97.652V96.8807C30.4751 96.9205 30.3928 96.9574 30.2763 96.9915C30.1626 97.0256 30.0348 97.0554 29.8928 97.081C29.7507 97.1065 29.6101 97.1293 29.4709 97.1491C29.3317 97.169 29.2109 97.1861 29.1087 97.2003C28.8786 97.2315 28.6726 97.2827 28.4908 97.3537C28.3089 97.4247 28.1655 97.5241 28.0604 97.652C27.9553 97.777 27.9027 97.9389 27.9027 98.1378C27.9027 98.4219 28.0064 98.6364 28.2138 98.7812C28.4212 98.9261 28.6854 98.9986 29.0064 98.9986ZM35.1555 96.1648V100H33.6129V93.4545H35.0874V94.5668H35.1641C35.3146 94.2003 35.5547 93.9091 35.8842 93.6932C36.2166 93.4773 36.6271 93.3693 37.1158 93.3693C37.5675 93.3693 37.9609 93.4659 38.2962 93.6591C38.6342 93.8523 38.8956 94.1321 39.0803 94.4986C39.2678 94.8651 39.3601 95.3097 39.3572 95.8324V100H37.8146V96.071C37.8146 95.6335 37.701 95.2912 37.4737 95.044C37.2493 94.7969 36.9382 94.6733 36.5405 94.6733C36.2706 94.6733 36.0305 94.733 35.8203 94.8523C35.6129 94.9687 35.4496 95.1378 35.3303 95.3594C35.2138 95.581 35.1555 95.8494 35.1555 96.1648ZM45.0973 97.2472V93.4545H46.6399V100H45.1442V98.8366H45.076C44.9283 99.2031 44.6854 99.5028 44.3473 99.7358C44.0121 99.9687 43.5987 100.085 43.1072 100.085C42.6783 100.085 42.299 99.9901 41.9695 99.7997C41.6428 99.6065 41.3871 99.3267 41.2024 98.9602C41.0178 98.5909 40.9254 98.1449 40.9254 97.6222V93.4545H42.468V97.3835C42.468 97.7983 42.5817 98.1278 42.8089 98.3722C43.0362 98.6165 43.3345 98.7386 43.7038 98.7386C43.9311 98.7386 44.1513 98.6832 44.3643 98.5724C44.5774 98.4616 44.7521 98.2969 44.8885 98.0781C45.0277 97.8565 45.0973 97.5795 45.0973 97.2472ZM48.2262 100V93.4545H49.7006V94.5668H49.7773C49.9137 94.1918 50.1396 93.8991 50.4549 93.6889C50.7702 93.4759 51.1467 93.3693 51.5842 93.3693C52.0273 93.3693 52.4009 93.4773 52.7049 93.6932C53.0117 93.9062 53.2276 94.1974 53.3526 94.5668H53.4208C53.5657 94.2031 53.81 93.9134 54.1538 93.6974C54.5004 93.4787 54.9109 93.3693 55.3853 93.3693C55.9876 93.3693 56.479 93.5597 56.8597 93.9403C57.2404 94.321 57.4308 94.8764 57.4308 95.6065V100H55.8839V95.8452C55.8839 95.4389 55.7759 95.142 55.56 94.9545C55.3441 94.7642 55.0799 94.669 54.7674 94.669C54.3952 94.669 54.104 94.7855 53.8938 95.0185C53.6864 95.2486 53.5827 95.5483 53.5827 95.9176V100H52.07V95.7812C52.07 95.4432 51.9677 95.1733 51.7631 94.9716C51.5614 94.7699 51.2972 94.669 50.9705 94.669C50.7489 94.669 50.5472 94.7259 50.3654 94.8395C50.1836 94.9503 50.0387 95.108 49.9308 95.3125C49.8228 95.5142 49.7688 95.75 49.7688 96.0199V100H48.2262ZM60.8793 100.132C60.4645 100.132 60.0909 100.058 59.7585 99.9105C59.429 99.7599 59.1676 99.5384 58.9744 99.2457C58.7841 98.9531 58.6889 98.5923 58.6889 98.1634C58.6889 97.794 58.7571 97.4886 58.8935 97.2472C59.0298 97.0057 59.2159 96.8125 59.4517 96.6676C59.6875 96.5227 59.9531 96.4134 60.2486 96.3395C60.5469 96.2628 60.8551 96.2074 61.1733 96.1733C61.5568 96.1335 61.8679 96.098 62.1065 96.0668C62.3452 96.0327 62.5185 95.9815 62.6264 95.9134C62.7372 95.8423 62.7926 95.733 62.7926 95.5852V95.5597C62.7926 95.2386 62.6974 94.9901 62.5071 94.8139C62.3168 94.6378 62.0426 94.5497 61.6847 94.5497C61.3068 94.5497 61.0071 94.6321 60.7855 94.7969C60.5668 94.9616 60.419 95.1562 60.3423 95.3807L58.902 95.1761C59.0156 94.7784 59.2031 94.446 59.4645 94.179C59.7259 93.9091 60.0455 93.7074 60.4233 93.5739C60.8011 93.4375 61.2188 93.3693 61.6761 93.3693C61.9915 93.3693 62.3054 93.4062 62.6179 93.4801C62.9304 93.554 63.2159 93.6761 63.4744 93.8466C63.733 94.0142 63.9403 94.2429 64.0966 94.5327C64.2557 94.8224 64.3352 95.1847 64.3352 95.6193V100H62.8523V99.1009H62.8011C62.7074 99.2827 62.5753 99.4531 62.4048 99.6122C62.2372 99.7685 62.0256 99.8949 61.7699 99.9915C61.517 100.085 61.2202 100.132 60.8793 100.132ZM61.2798 98.9986C61.5895 98.9986 61.858 98.9375 62.0852 98.8153C62.3125 98.6903 62.4872 98.5256 62.6094 98.321C62.7344 98.1165 62.7969 97.8935 62.7969 97.652V96.8807C62.7486 96.9205 62.6662 96.9574 62.5497 96.9915C62.4361 97.0256 62.3082 97.0554 62.1662 97.081C62.0241 97.1065 61.8835 97.1293 61.7443 97.1491C61.6051 97.169 61.4844 97.1861 61.3821 97.2003C61.152 97.2315 60.946 97.2827 60.7642 97.3537C60.5824 97.4247 60.4389 97.5241 60.3338 97.652C60.2287 97.777 60.1761 97.9389 60.1761 98.1378C60.1761 98.4219 60.2798 98.6364 60.4872 98.7812C60.6946 98.9261 60.9588 98.9986 61.2798 98.9986ZM67.429 96.1648V100H65.8864V93.4545H67.3608V94.5668H67.4375C67.5881 94.2003 67.8281 93.9091 68.1577 93.6932C68.4901 93.4773 68.9006 93.3693 69.3892 93.3693C69.8409 93.3693 70.2344 93.4659 70.5696 93.6591C70.9077 93.8523 71.169 94.1321 71.3537 94.4986C71.5412 94.8651 71.6335 95.3097 71.6307 95.8324V100H70.0881V96.071C70.0881 95.6335 69.9744 95.2912 69.7472 95.044C69.5227 94.7969 69.2116 94.6733 68.8139 94.6733C68.544 94.6733 68.304 94.733 68.0938 94.8523C67.8864 94.9687 67.723 95.1378 67.6037 95.3594C67.4872 95.581 67.429 95.8494 67.429 96.1648ZM74.6051 97.946L74.6009 96.0838H74.848L77.2003 93.4545H79.0028L76.1094 96.6761H75.7898L74.6051 97.946ZM73.1989 100V91.2727H74.7415V100H73.1989ZM77.3068 100L75.1761 97.0213L76.2159 95.9347L79.152 100H77.3068ZM80.0309 100V93.4545H81.5735V100H80.0309ZM80.8065 92.5256C80.5621 92.5256 80.3519 92.4446 80.1758 92.2827C79.9996 92.1179 79.9116 91.9205 79.9116 91.6903C79.9116 91.4574 79.9996 91.2599 80.1758 91.098C80.3519 90.9332 80.5621 90.8509 80.8065 90.8509C81.0536 90.8509 81.2638 90.9332 81.4371 91.098C81.6133 91.2599 81.7013 91.4574 81.7013 91.6903C81.7013 91.9205 81.6133 92.1179 81.4371 92.2827C81.2638 92.4446 81.0536 92.5256 80.8065 92.5256ZM84.7024 96.1648V100H83.1598V93.4545H84.6342V94.5668H84.7109C84.8615 94.2003 85.1016 93.9091 85.4311 93.6932C85.7635 93.4773 86.174 93.3693 86.6626 93.3693C87.1143 93.3693 87.5078 93.4659 87.843 93.6591C88.1811 93.8523 88.4425 94.1321 88.6271 94.4986C88.8146 94.8651 88.907 95.3097 88.9041 95.8324V100H87.3615V96.071C87.3615 95.6335 87.2479 95.2912 87.0206 95.044C86.7962 94.7969 86.4851 94.6733 86.0874 94.6733C85.8175 94.6733 85.5774 94.733 85.3672 94.8523C85.1598 94.9687 84.9964 95.1378 84.8771 95.3594C84.7607 95.581 84.7024 95.8494 84.7024 96.1648ZM92.9013 100.115C92.3871 100.115 91.9268 99.983 91.5206 99.7188C91.1143 99.4545 90.7933 99.071 90.5575 98.5682C90.3217 98.0653 90.2038 97.4545 90.2038 96.7358C90.2038 96.0085 90.3232 95.3949 90.5618 94.8949C90.8033 94.392 91.1286 94.0128 91.5376 93.7571C91.9467 93.4986 92.4027 93.3693 92.9055 93.3693C93.2891 93.3693 93.6044 93.4347 93.8516 93.5653C94.0987 93.6932 94.2947 93.848 94.4396 94.0298C94.5845 94.2088 94.6967 94.3778 94.7763 94.5369H94.8402V91.2727H96.3871V100H94.87V98.9688H94.7763C94.6967 99.1278 94.5817 99.2969 94.4311 99.4759C94.2805 99.652 94.0817 99.8026 93.8345 99.9276C93.5874 100.053 93.2763 100.115 92.9013 100.115ZM93.3317 98.8494C93.6584 98.8494 93.9368 98.7614 94.1669 98.5852C94.397 98.4062 94.5717 98.1577 94.6911 97.8395C94.8104 97.5213 94.87 97.1506 94.87 96.7273C94.87 96.304 94.8104 95.9361 94.6911 95.6236C94.5746 95.3111 94.4013 95.0682 94.1712 94.8949C93.9439 94.7216 93.6641 94.6349 93.3317 94.6349C92.9879 94.6349 92.701 94.7244 92.4709 94.9034C92.2408 95.0824 92.0675 95.3295 91.951 95.6449C91.8345 95.9602 91.7763 96.321 91.7763 96.7273C91.7763 97.1364 91.8345 97.5014 91.951 97.8224C92.0703 98.1406 92.245 98.392 92.4751 98.5767C92.7081 98.7585 92.9936 98.8494 93.3317 98.8494ZM99.842 98.8068L99.7866 99.2756C99.7468 99.6335 99.6758 99.9972 99.5735 100.366C99.4741 100.739 99.369 101.081 99.2582 101.393C99.1474 101.706 99.0579 101.952 98.9897 102.131H97.9499C97.9897 101.957 98.0437 101.722 98.1119 101.423C98.1829 101.125 98.2511 100.79 98.3164 100.418C98.3817 100.045 98.4258 99.6676 98.4485 99.2841L98.4783 98.8068H99.842ZM101.638 100V91.2727H103.219V95.2827H103.326L106.73 91.2727H108.661L105.286 95.1889L108.691 100H106.79L104.186 96.2585L103.219 97.4006V100H101.638ZM111.575 100.132C111.16 100.132 110.786 100.058 110.454 99.9105C110.124 99.7599 109.863 99.5384 109.67 99.2457C109.479 98.9531 109.384 98.5923 109.384 98.1634C109.384 97.794 109.452 97.4886 109.589 97.2472C109.725 97.0057 109.911 96.8125 110.147 96.6676C110.383 96.5227 110.648 96.4134 110.944 96.3395C111.242 96.2628 111.55 96.2074 111.869 96.1733C112.252 96.1335 112.563 96.098 112.802 96.0668C113.04 96.0327 113.214 95.9815 113.322 95.9134C113.433 95.8423 113.488 95.733 113.488 95.5852V95.5597C113.488 95.2386 113.393 94.9901 113.202 94.8139C113.012 94.6378 112.738 94.5497 112.38 94.5497C112.002 94.5497 111.702 94.6321 111.481 94.7969C111.262 94.9616 111.114 95.1562 111.038 95.3807L109.597 95.1761C109.711 94.7784 109.898 94.446 110.16 94.179C110.421 93.9091 110.741 93.7074 111.119 93.5739C111.496 93.4375 111.914 93.3693 112.371 93.3693C112.687 93.3693 113.001 93.4062 113.313 93.4801C113.626 93.554 113.911 93.6761 114.17 93.8466C114.428 94.0142 114.636 94.2429 114.792 94.5327C114.951 94.8224 115.031 95.1847 115.031 95.6193V100H113.548V99.1009H113.496C113.403 99.2827 113.271 99.4531 113.1 99.6122C112.933 99.7685 112.721 99.8949 112.465 99.9915C112.212 100.085 111.915 100.132 111.575 100.132ZM111.975 98.9986C112.285 98.9986 112.553 98.9375 112.781 98.8153C113.008 98.6903 113.183 98.5256 113.305 98.321C113.43 98.1165 113.492 97.8935 113.492 97.652V96.8807C113.444 96.9205 113.362 96.9574 113.245 96.9915C113.131 97.0256 113.004 97.0554 112.862 97.081C112.719 97.1065 112.579 97.1293 112.44 97.1491C112.3 97.169 112.18 97.1861 112.077 97.2003C111.847 97.2315 111.641 97.2827 111.46 97.3537C111.278 97.4247 111.134 97.5241 111.029 97.652C110.924 97.777 110.871 97.9389 110.871 98.1378C110.871 98.4219 110.975 98.6364 111.183 98.7812C111.39 98.9261 111.654 98.9986 111.975 98.9986ZM118.124 91.2727V100H116.582V91.2727H118.124ZM119.711 100V93.4545H121.185V94.5668H121.262C121.398 94.1918 121.624 93.8991 121.939 93.6889C122.255 93.4759 122.631 93.3693 123.069 93.3693C123.512 93.3693 123.885 93.4773 124.189 93.6932C124.496 93.9062 124.712 94.1974 124.837 94.5668H124.905C125.05 94.2031 125.294 93.9134 125.638 93.6974C125.985 93.4787 126.395 93.3693 126.87 93.3693C127.472 93.3693 127.963 93.5597 128.344 93.9403C128.725 94.321 128.915 94.8764 128.915 95.6065V100H127.368V95.8452C127.368 95.4389 127.26 95.142 127.044 94.9545C126.828 94.7642 126.564 94.669 126.252 94.669C125.88 94.669 125.588 94.7855 125.378 95.0185C125.171 95.2486 125.067 95.5483 125.067 95.9176V100H123.554V95.7812C123.554 95.4432 123.452 95.1733 123.248 94.9716C123.046 94.7699 122.782 94.669 122.455 94.669C122.233 94.669 122.032 94.7259 121.85 94.8395C121.668 94.9503 121.523 95.108 121.415 95.3125C121.307 95.5142 121.253 95.75 121.253 96.0199V100H119.711ZM130.48 100V93.4545H132.023V100H130.48ZM131.256 92.5256C131.011 92.5256 130.801 92.4446 130.625 92.2827C130.449 92.1179 130.361 91.9205 130.361 91.6903C130.361 91.4574 130.449 91.2599 130.625 91.098C130.801 90.9332 131.011 90.8509 131.256 90.8509C131.503 90.8509 131.713 90.9332 131.886 91.098C132.063 91.2599 132.151 91.4574 132.151 91.6903C132.151 91.9205 132.063 92.1179 131.886 92.2827C131.713 92.4446 131.503 92.5256 131.256 92.5256Z" fill="white"/>
</svg>
