<svg width="112" height="118" viewBox="0 0 112 118" fill="none" xmlns="http://www.w3.org/2000/svg">
<path fill-rule="evenodd" clip-rule="evenodd" d="M105.516 -23.6636C98.7553 -16.9192 90.3603 -7.67383 87.7018 2.81971C86.871 6.09883 86.5999 9.5013 87.1134 12.987C86.5534 15.4544 86.3161 17.9893 86.4957 20.5748C86.429 20.8134 86.3652 21.0526 86.3044 21.2925C85.8322 23.1567 85.5407 25.0606 85.4715 26.9971C85.1526 27.9028 84.8734 28.8191 84.6388 29.7451C84.5685 30.0222 84.5023 30.3002 84.4402 30.5791C78.2773 37.0051 71.58 45.2177 69.2581 54.3823C67.9265 59.6382 68.0327 65.2109 70.503 70.9353C72.9722 76.6569 77.7938 82.508 85.8538 88.3378C104.631 101.919 122.102 102.601 135.506 103.123C136.751 103.172 137.96 103.219 139.133 103.275C146.053 103.606 151.594 104.244 155.45 107.187C159.286 110.115 161.528 115.39 161.641 125.199L162.23 125.213C162.117 115.355 159.866 109.857 155.812 106.763C151.778 103.684 146.033 103.052 139.142 102.723C137.967 102.666 136.757 102.619 135.513 102.571C122.115 102.047 104.821 101.37 86.2025 87.9039C78.2056 82.1197 73.4659 76.3466 71.0478 70.7434C68.6309 65.1428 68.5238 59.6899 69.8314 54.5286C72.0381 45.8184 78.2701 37.9496 84.2228 31.6524L84.2173 31.6825C84.0656 32.015 83.9188 32.3492 83.7771 32.685C79.6706 37.7923 76.0404 43.6107 74.4537 49.8737C73.1221 55.1295 73.2283 60.7023 75.6986 66.4266C78.1678 72.1483 82.9894 77.9993 91.0495 83.8292C109.827 97.4108 127.298 98.0921 140.701 98.6149C141.946 98.6634 143.156 98.7106 144.328 98.7666C151.248 99.0972 156.79 99.7357 160.646 102.679C164.481 105.606 166.724 110.882 166.837 120.69L167.426 120.704C167.312 110.847 165.061 105.349 161.007 102.254C156.973 99.1753 151.229 98.5432 144.337 98.2139C143.163 98.1578 141.953 98.1105 140.709 98.0619C127.311 97.538 110.016 96.8618 91.3981 83.3953C83.4012 77.6111 78.6615 71.838 76.2434 66.2347C73.8265 60.6342 73.7194 55.1812 75.027 50.02C76.3256 44.8943 79.0181 40.06 82.2273 35.6659C80.732 38.3967 79.5273 41.2547 78.7781 44.2118C77.4465 49.4676 77.5527 55.0404 80.023 60.7647C82.4922 66.4864 87.3138 72.3374 95.3739 78.1673C114.151 91.7489 131.622 92.4302 145.026 92.9529L145.027 92.953L145.027 92.953L145.032 92.9532L145.035 92.9533C146.277 93.0017 147.483 93.0488 148.653 93.1047C155.573 93.4353 161.114 94.0738 164.97 97.0168C168.806 99.9444 171.048 105.22 171.161 115.028L171.75 115.042C171.637 105.185 169.386 99.6868 165.332 96.5924C161.298 93.5134 155.553 92.8813 148.662 92.552C147.487 92.4959 146.277 92.4486 145.033 92.4C131.635 91.8761 114.341 91.1999 95.7225 77.7334C87.7256 71.9492 82.9859 66.1761 80.5678 60.5728C78.1509 54.9723 78.0438 49.5193 79.3514 44.3581C80.0273 41.69 81.0809 39.101 82.3885 36.6118C82.3095 36.8902 82.2344 37.1694 82.1635 37.4495C80.8319 42.7054 80.9381 48.2781 83.4084 54.0025C85.8776 59.7242 90.6992 65.5752 98.7592 71.4051C117.536 84.9867 135.007 85.668 148.411 86.1907L148.413 86.1908C149.657 86.2393 150.866 86.2865 152.038 86.3424C158.958 86.6731 164.5 87.3116 168.356 90.2546C172.191 93.1822 174.434 98.4577 174.547 108.266L175.136 108.28C175.022 98.4224 172.771 92.9246 168.717 89.8301C164.683 86.7512 158.939 86.1191 152.047 85.7898C150.872 85.7337 149.662 85.6864 148.419 85.6378C135.021 85.1139 117.726 84.4377 99.1079 70.9711C91.111 65.187 86.3712 59.4138 83.9532 53.8106C81.5362 48.21 81.4291 42.7571 82.7368 37.5958C83.0492 36.3626 83.4423 35.1463 83.9039 33.9489C83.526 37.9387 84.0622 42.0772 85.8837 46.298C88.3529 52.0197 93.1744 57.8707 101.234 63.7006C120.012 77.2822 137.483 77.9635 150.887 78.4863C152.131 78.5348 153.341 78.582 154.513 78.638C161.434 78.9686 166.975 79.6071 170.831 82.5501C174.666 85.4777 176.909 90.7532 177.022 100.561L177.611 100.575C177.497 90.718 175.246 85.2201 171.192 82.1257C167.158 79.0467 161.414 78.4146 154.522 78.0853C153.348 78.0292 152.138 77.9819 150.894 77.9333C137.496 77.4094 120.201 76.7332 101.583 63.2667C93.5863 57.4825 88.8465 51.7094 86.4284 46.1062C84.458 41.5401 84.0228 37.0722 84.6379 32.7804C84.8886 32.3932 85.1444 32.0088 85.4046 31.6276C85.5 31.5141 85.5956 31.401 85.6914 31.2883C85.9934 33.445 86.595 35.634 87.5494 37.8455C90.0186 43.5672 94.8401 49.4182 102.9 55.2481C121.677 68.8297 139.148 69.511 152.552 70.0337C153.797 70.0823 155.007 70.1294 156.179 70.1855C163.099 70.5161 168.641 71.1546 172.497 74.0976C176.332 77.0252 178.575 82.3007 178.688 92.1088L179.277 92.1228C179.163 82.2654 176.912 76.7676 172.858 73.6731C168.824 70.5942 163.08 69.9621 156.188 69.6328C155.013 69.5767 153.803 69.5294 152.56 69.4808C139.162 68.9569 121.867 68.2807 103.249 54.8142C95.2519 49.03 90.5122 43.2568 88.0941 37.6536C87.0795 35.3025 86.4719 32.9774 86.2052 30.6889C86.9055 29.8791 87.6128 29.0894 88.3199 28.3211C88.3881 28.4883 88.4583 28.6555 88.5305 28.8229C90.9997 34.5446 95.8213 40.3956 103.881 46.2255C122.658 59.8071 140.13 60.4884 153.533 61.0111L153.536 61.0112L153.539 61.0113L153.544 61.0115L153.549 61.0117C154.789 61.0601 155.993 61.1071 157.16 61.1628C164.08 61.4935 169.622 62.132 173.478 65.075C177.313 68.0025 179.556 73.2781 179.669 83.0862L180.258 83.1001C180.144 73.2428 177.893 67.745 173.839 64.6505C169.805 61.5716 164.061 60.9395 157.169 60.6102C155.995 60.5541 154.784 60.5068 153.541 60.4582C140.143 59.9343 122.848 59.258 104.23 45.7915C96.2331 40.0074 91.4934 34.2342 89.0753 28.631C88.9632 28.3711 88.856 28.1116 88.7537 27.8524C89.8039 26.7237 90.8505 25.6429 91.8699 24.6139C94.641 28.6441 98.6838 32.7148 104.298 36.7752C123.075 50.3568 140.546 51.0382 153.95 51.5609C155.194 51.6094 156.404 51.6566 157.576 51.7126C164.497 52.0432 170.038 52.6817 173.894 55.6248C177.729 58.5523 179.972 63.8278 180.085 73.636L180.674 73.6499C180.56 63.7926 178.309 58.2947 174.255 55.2003C170.221 52.1213 164.477 51.4892 157.585 51.16C156.411 51.1039 155.201 51.0566 153.957 51.0079C140.559 50.4841 123.264 49.8078 104.646 36.3413C99.0195 32.2715 95.0052 28.2071 92.2777 24.2035L92.4625 24.0184L92.7037 23.7773L92.2682 23.3904C92.1618 23.4964 92.0551 23.6031 91.948 23.7104C91.9115 23.6547 91.8753 23.5991 91.8393 23.5435C93.5898 21.5992 95.3557 19.7837 97.0281 18.1154L96.5926 17.7285C94.9606 19.3564 93.2335 21.1301 91.5148 23.0318C91.2954 22.6787 91.0859 22.3261 90.886 21.9741C93.9242 18.0101 97.328 14.4311 100.413 11.3532L99.9779 10.9662C96.9512 13.9855 93.5969 17.5061 90.5765 21.4155C90.2512 20.8132 89.9537 20.2127 89.6829 19.614C93.3988 13.4918 98.4701 8.05652 102.889 3.64875L102.453 3.26177C98.126 7.57835 93.1294 12.9194 89.3959 18.9566C89.063 18.1655 88.776 17.3774 88.5323 16.5927C92.1007 8.24278 98.868 0.86866 104.554 -4.80378L104.119 -5.19075C98.5853 0.329175 91.9573 7.52444 88.2755 15.7082C88.0327 14.8094 87.8458 13.9154 87.7112 13.0267C87.7582 12.8228 87.8075 12.6193 87.8589 12.4162C90.4787 2.07549 98.7718 -7.07924 105.536 -13.8264L105.1 -14.2134C98.5276 -7.6571 90.4111 1.26266 87.5213 11.3949C87.2865 8.51768 87.5822 5.7009 88.2751 2.96601C90.8949 -7.37473 99.188 -16.5295 105.952 -23.2766L105.516 -23.6636ZM85.5647 30.253C85.4942 30.3906 85.4246 30.5284 85.3558 30.6666C85.4297 30.5611 85.504 30.456 85.5786 30.3511L85.5685 30.249L85.5647 30.253ZM87.2707 28.075C87.483 27.8011 87.697 27.5292 87.9124 27.2592C87.8292 27.0275 87.7497 26.796 87.6739 26.5649C87.2915 27.1714 86.9217 27.785 86.5667 28.4053C86.7362 28.235 86.9049 28.0662 87.0725 27.899L87.2707 28.075ZM91.538 24.1223C90.9266 24.7385 90.3043 25.3741 89.6763 26.0283C90.2606 25.3322 90.8519 24.6501 91.446 23.9827L91.5061 24.0741L91.538 24.1223ZM91.1183 23.473C90.9072 23.1377 90.7046 22.8028 90.5106 22.4683C89.6645 23.5926 88.8496 24.7471 88.0811 25.9291C88.1623 26.1951 88.2485 26.4615 88.3397 26.7282C89.2498 25.6073 90.1816 24.5213 91.1183 23.473ZM85.4106 29.2768L85.337 29.4149C85.3821 29.2483 85.4287 29.0821 85.4767 28.9162C85.4797 28.9892 85.4831 29.0622 85.4868 29.1352L85.4106 29.2768ZM87.4452 25.8301C86.9585 26.5858 86.4906 27.3529 86.0455 28.1308C86.0424 27.7908 86.0465 27.4517 86.0575 27.1136C86.3678 26.2386 86.7157 25.3732 87.0966 24.5184C87.1999 24.9545 87.3159 25.3917 87.4452 25.8301ZM90.1959 21.9127C89.3888 22.9763 88.6081 24.068 87.8666 25.1854C87.7264 24.6688 87.6047 24.1538 87.5008 23.6405C88.0541 22.4767 88.6663 21.3332 89.3255 20.2121C89.592 20.7778 89.8819 21.3447 90.1959 21.9127ZM89.0284 19.56C89.0009 19.4975 88.9737 19.4351 88.9467 19.3727C88.6646 18.719 88.4134 18.0673 88.1915 17.4178C87.7682 18.4797 87.3981 19.5568 87.0898 20.6476C87.1386 21.3148 87.2159 21.9853 87.3233 22.6588C87.8488 21.6079 88.4201 20.5744 89.0284 19.56ZM86.8885 23.555C86.806 23.1318 86.7352 22.7098 86.6758 22.289C86.4708 23.2147 86.3123 24.1494 86.2054 25.0924C86.4213 24.5761 86.6494 24.0636 86.8885 23.555ZM87.9108 16.5453C87.5881 17.3109 87.292 18.0848 87.0257 18.8665C87.027 17.4168 87.1577 15.9841 87.4004 14.5712C87.5415 15.2267 87.7111 15.8848 87.9108 16.5453ZM63.3472 57.8256C66.0057 47.3321 74.4006 38.0867 81.1616 31.3423L81.5972 31.7293C74.8334 38.4765 66.5403 47.6312 63.9205 57.9719C62.6129 63.1332 62.72 68.5862 65.1369 74.1867C67.555 79.7899 72.2947 85.5631 80.2916 91.3473C98.9096 104.814 116.204 105.49 129.602 106.014C130.846 106.062 132.056 106.11 133.231 106.166C140.122 106.495 145.867 107.127 149.901 110.206C153.955 113.301 156.206 118.799 156.319 128.656L155.731 128.642C155.617 118.834 153.375 113.558 149.539 110.631C145.684 107.688 140.142 107.049 133.222 106.719C132.049 106.663 130.84 106.615 129.595 106.567C116.191 106.044 98.7201 105.363 79.9429 91.7812C71.8829 85.9513 67.0613 80.1003 64.5921 74.3786C62.1218 68.6543 62.0156 63.0815 63.3472 57.8256ZM74.726 33.9196C67.965 40.6639 59.5701 49.9093 56.9116 60.4029C55.58 65.6587 55.6861 71.2315 58.1565 76.9558C60.6257 82.6775 65.4473 88.5285 73.5073 94.3584C92.2844 107.94 109.755 108.621 123.159 109.144L123.159 109.144C124.404 109.193 125.614 109.24 126.786 109.296C133.706 109.626 139.248 110.265 143.104 113.208C146.939 116.135 149.182 121.411 149.295 131.219L149.884 131.233C149.77 121.376 147.519 115.878 143.465 112.783C139.431 109.704 133.687 109.072 126.795 108.743C125.621 108.687 124.41 108.64 123.167 108.591C109.769 108.067 92.474 107.391 73.856 93.9245C65.8591 88.1403 61.1193 82.3672 58.7012 76.764C56.2843 71.1634 56.1772 65.7104 57.4848 60.5492C60.1047 50.2084 68.3978 41.0537 75.1616 34.3065L74.726 33.9196ZM50.1271 62.3578C52.7856 51.8642 61.1805 42.6188 67.9415 35.8745L68.3771 36.2615C61.6133 43.0086 53.3202 52.1633 50.7003 62.5041C49.3927 67.6654 49.4998 73.1183 51.9168 78.7189C54.3348 84.3221 59.0746 90.0952 67.0715 95.8794C85.6895 109.346 102.984 110.022 116.382 110.546C117.626 110.595 118.836 110.642 120.01 110.698C126.902 111.027 132.647 111.659 136.681 114.738C140.735 117.833 142.986 123.331 143.099 133.188L142.51 133.174C142.397 123.366 140.155 118.09 136.319 115.163C132.463 112.22 126.922 111.581 120.002 111.251C118.829 111.195 117.62 111.148 116.375 111.099C102.971 110.576 85.4999 109.895 66.7228 96.3133C58.6628 90.4834 53.8412 84.6324 51.372 78.9107C48.9017 73.1864 48.7955 67.6137 50.1271 62.3578ZM60.9522 37.4422C54.1912 44.1865 45.7963 53.4319 43.1378 63.9255C41.8062 69.1814 41.9124 74.7541 44.3827 80.4784C46.8519 86.2001 51.6735 92.0511 59.7335 97.881C78.5107 111.463 95.9818 112.144 109.386 112.667C110.63 112.715 111.84 112.762 113.012 112.818C119.933 113.149 125.474 113.788 129.33 116.731C133.165 119.658 135.408 124.934 135.521 134.742L136.11 134.756C135.996 124.898 133.745 119.4 129.691 116.306C125.657 113.227 119.913 112.595 113.021 112.266C111.847 112.21 110.637 112.162 109.393 112.114C95.995 111.59 78.7002 110.914 60.0822 97.4471C52.0853 91.6629 47.3456 85.8898 44.9275 80.2866C42.5106 74.686 42.4035 69.2331 43.7111 64.0718C46.3309 53.731 54.624 44.5763 61.3878 37.8292L60.9522 37.4422ZM36.0513 65.304C38.7099 54.8105 47.1048 45.5651 53.8658 38.8207L54.3013 39.2077C47.5376 45.9548 39.2444 55.1096 36.6246 65.4503C35.317 70.6116 35.4241 76.0645 37.841 81.6651C40.2591 87.2683 44.9988 93.0414 52.9957 98.8256C71.6138 112.292 88.9086 112.968 102.307 113.492C103.55 113.541 104.76 113.588 105.935 113.644C112.827 113.974 118.571 114.606 122.605 117.685C126.659 120.779 128.91 126.277 129.024 136.134L128.435 136.12C128.322 126.312 126.079 121.037 122.243 118.109C118.388 115.166 112.846 114.528 105.926 114.197C104.754 114.141 103.544 114.094 102.299 114.045C88.8953 113.522 71.4242 112.841 52.6471 99.2595C44.587 93.4297 39.7655 87.5786 37.2963 81.8569C34.8259 76.1326 34.7198 70.5599 36.0513 65.304ZM46.7642 40.1674C40.0032 46.9118 31.6083 56.1572 28.9498 66.6507C27.6182 71.9066 27.7243 77.4794 30.1947 83.2037C32.6639 88.9254 37.4854 94.7764 45.5455 100.606C64.3226 114.188 81.7937 114.869 95.1975 115.392C96.4423 115.44 97.652 115.488 98.8244 115.544C105.744 115.874 111.286 116.513 115.142 119.456C118.977 122.383 121.22 127.659 121.333 137.467L121.922 137.481C121.808 127.624 119.557 122.126 115.503 119.031C111.469 115.952 105.725 115.32 98.8332 114.991C97.6587 114.935 96.4486 114.888 95.2049 114.839C81.807 114.315 64.5122 113.639 45.8941 100.172C37.8972 94.3882 33.1575 88.615 30.7394 83.0118C28.3225 77.4113 28.2154 71.9583 29.523 66.7971C32.1428 56.4563 40.436 47.3016 47.1997 40.5544L46.7642 40.1674ZM21.8908 68.0839C24.5493 57.5903 32.9442 48.3449 39.7052 41.6006L40.1408 41.9875C33.377 48.7347 25.0839 57.8894 22.4641 68.2302C21.1565 73.3914 21.2636 78.8444 23.6805 84.4449C26.0986 90.0482 30.8383 95.8213 38.8352 101.605C57.4532 115.072 74.748 115.748 88.146 116.272C89.3896 116.321 90.5998 116.368 91.7742 116.424C98.666 116.753 104.41 117.385 108.444 120.464C112.498 123.559 114.749 129.057 114.863 138.914L114.274 138.9C114.161 129.092 111.918 123.816 108.083 120.889C104.227 117.946 98.6855 117.307 91.7655 116.977C90.593 116.921 89.3833 116.874 88.1386 116.825C74.7348 116.302 57.2637 115.621 38.4865 102.039C30.4265 96.2095 25.6049 90.3585 23.1357 84.6368C20.6654 78.9125 20.5592 73.3397 21.8908 68.0839ZM32.7359 43.2068C25.9749 49.9511 17.58 59.1965 14.9214 69.6901C13.5899 74.9459 13.696 80.5187 16.1664 86.243C18.6356 91.9647 23.4571 97.8157 31.5172 103.646C50.2943 117.227 67.7654 117.909 81.1691 118.431L81.1692 118.431C82.414 118.48 83.6237 118.527 84.7961 118.583C91.7162 118.914 97.2578 119.552 101.114 122.495C104.949 125.423 107.192 130.698 107.305 140.506L107.894 140.52C107.78 130.663 105.529 125.165 101.475 122.071C97.441 118.992 91.6966 118.36 84.8049 118.03C83.6304 117.974 82.4203 117.927 81.1766 117.878C67.7787 117.354 50.4838 116.678 31.8658 103.212C23.8689 97.4275 19.1292 91.6544 16.7111 86.0512C14.2942 80.4506 14.1871 74.9976 15.4947 69.8364C18.1145 59.4956 26.4076 50.3409 33.1714 43.5937L32.7359 43.2068ZM8.07532 71.5294C10.7338 61.0359 19.1288 51.7905 25.8898 45.0461L26.3253 45.4331C19.5615 52.1803 11.2684 61.335 8.64859 71.6757C7.34099 76.837 7.44807 82.2899 9.865 87.8905C12.2831 93.4937 17.0228 99.2668 25.0197 105.051C43.6377 118.518 60.9326 119.194 74.3305 119.718C75.5742 119.766 76.7843 119.814 77.9587 119.87C84.8505 120.199 90.5949 120.831 94.6288 123.91C98.683 127.004 100.934 132.502 101.048 142.36L100.459 142.346C100.346 132.538 98.103 127.262 94.2674 124.334C90.4116 121.391 84.8701 120.753 77.95 120.422C76.7776 120.366 75.5679 120.319 74.3231 120.271L74.3231 120.271C60.9193 119.748 43.4482 119.067 24.6711 105.485C16.611 99.6551 11.7894 93.8041 9.32024 88.0824C6.8499 82.358 6.74374 76.7853 8.07532 71.5294ZM19.1911 47.1585C12.4301 53.9029 4.03515 63.1483 1.37661 73.6418C0.0450406 78.8977 0.1512 84.4705 2.62154 90.1948C5.09074 95.9165 9.9123 101.767 17.9724 107.597C36.7495 121.179 54.2205 121.86 67.6243 122.383L67.6244 122.383L67.6244 122.383C68.8692 122.432 70.0789 122.479 71.2513 122.535C78.1714 122.865 83.7129 123.504 87.5687 126.447C91.4043 129.374 93.6468 134.65 93.7599 144.458L94.3489 144.472C94.2352 134.615 91.9843 129.117 87.9301 126.022C83.8962 122.943 78.1518 122.311 71.26 121.982C70.0856 121.926 68.8755 121.879 67.6318 121.83C54.2338 121.306 36.939 120.63 18.321 107.163C10.3241 101.379 5.58437 95.6061 3.1663 90.0029C0.749367 84.4023 0.642286 78.9494 1.94989 73.7881C4.56971 63.4474 12.8628 54.2927 19.6266 47.5455L19.1911 47.1585Z" fill="url(#paint0_radial_1_189)" fill-opacity="0.58"/>
<defs>
<radialGradient id="paint0_radial_1_189" cx="0" cy="0" r="1" gradientUnits="userSpaceOnUse" gradientTransform="translate(78.9813 78.6409) rotate(44.6554) scale(82.2368 83.1472)">
<stop stop-color="white"/>
<stop offset="1" stop-color="#1E1E1E" stop-opacity="0"/>
<stop offset="1" stop-color="#0E0E35" stop-opacity="0"/>
<stop offset="1" stop-color="white" stop-opacity="0"/>
</radialGradient>
</defs>
</svg>
